# xmcd
#
# Track frame offsets: 
#        150
#        21156
#        39919
#        62911
#        84243
#        105881
#        123345
#        146554
#        164852
#        181534
#        197091
#
# Disc length: 2883 seconds
#
# Revision: 0
# Processed by: cddbd v1.5.2PL0 Copyright (c) Steve Scherf et al.
# Submitted via: ExactAudioCopyFreeDBPlugin 1.0
#
DISCID=880b410b
DTITLE=Blues Traveler - Icon
DYEAR=2013
DGENRE=Blues
TTITLE0=Run_Around
TTITLE1=But Anyway
TTITLE2=The Mountains Win Again
TTITLE3=Carolina Blues
TTITLE4=Hook
TTITLE5=Orange In The Sun
TTITLE6=Conquer Me
TTITLE7=Back In The Day
TTITLE8=100 Years
TTITLE9=Most Precarious
TTITLE10=All In The Groove
EXTD=
EXTT0=
EXTT1=
EXTT2=
EXTT3=
EXTT4=
EXTT5=
EXTT6=
EXTT7=
EXTT8=
EXTT9=
EXTT10=
PLAYORDER=
